<svg xmlns="http://www.w3.org/2000/svg" xmlns:xlink="http://www.w3.org/1999/xlink" viewBox="0,0,256,256" width="26px" height="26px" fill-rule="nonzero"><g fill="#f0f6fc" fill-rule="nonzero" stroke="none" stroke-width="1" stroke-linecap="butt" stroke-linejoin="miter" stroke-miterlimit="10" stroke-dasharray="" stroke-dashoffset="0" font-family="none" font-weight="none" font-size="none" text-anchor="none" style="mix-blend-mode: normal"><g transform="scale(9.84615,9.84615)"><path d="M12.90625,-0.03125c-0.04297,0.00781 -0.08594,0.01953 -0.125,0.03125c-0.46484,0.10547 -0.79297,0.52344 -0.78125,1v3c-0.00391,0.35938 0.18359,0.69531 0.49609,0.87891c0.3125,0.17969 0.69531,0.17969 1.00781,0c0.3125,-0.18359 0.5,-0.51953 0.49609,-0.87891v-3c0.01172,-0.28906 -0.10547,-0.56641 -0.3125,-0.76172c-0.21094,-0.19922 -0.49609,-0.29687 -0.78125,-0.26953zM6.84375,1.59375c-0.33203,0.04688 -0.61719,0.25781 -0.76172,0.55859c-0.14453,0.30078 -0.12891,0.65234 0.04297,0.94141l1.5,2.625c0.27734,0.48438 0.89063,0.65234 1.375,0.375c0.48438,-0.27734 0.65234,-0.89062 0.375,-1.375l-1.5,-2.625c-0.20312,-0.36719 -0.61719,-0.56641 -1.03125,-0.5zM18.8125,1.59375c-0.29297,0.05469 -0.54297,0.23828 -0.6875,0.5l-1.5,2.625c-0.27734,0.48438 -0.10937,1.09766 0.375,1.375c0.48438,0.27734 1.09766,0.10938 1.375,-0.375l1.5,-2.625c0.19141,-0.32422 0.18359,-0.73047 -0.02344,-1.04687c-0.20312,-0.31641 -0.57031,-0.49219 -0.94531,-0.45312c-0.03125,0 -0.0625,0 -0.09375,0zM23.34375,5.96875c-0.03125,0.00781 -0.0625,0.01953 -0.09375,0.03125c-0.12109,0.01953 -0.23828,0.0625 -0.34375,0.125l-2.625,1.5c-0.48437,0.27734 -0.65234,0.89063 -0.375,1.375c0.27734,0.48438 0.89063,0.65234 1.375,0.375l2.625,-1.5c0.46875,-0.19922 0.71484,-0.71484 0.57031,-1.20312c-0.14453,-0.48828 -0.63281,-0.79297 -1.13281,-0.70312zM2.4375,6c-0.43359,0.05469 -0.77734,0.38281 -0.85937,0.8125c-0.07812,0.42969 0.13281,0.85938 0.51563,1.0625l2.625,1.5c0.48438,0.27734 1.09766,0.10938 1.375,-0.375c0.27734,-0.48437 0.10938,-1.09766 -0.375,-1.375l-2.625,-1.5c-0.19922,-0.11719 -0.42969,-0.16016 -0.65625,-0.125zM13,6c-3.86719,0 -7,3.13281 -7,7c0,3.86719 3.13281,7 7,7c3.86719,0 7,-3.13281 7,-7c0,-3.86719 -3.13281,-7 -7,-7zM13,8c2.75781,0 5,2.24219 5,5c0,2.75781 -2.24219,5 -5,5c-2.75781,0 -5,-2.24219 -5,-5c0,-2.75781 2.24219,-5 5,-5zM0.71875,12c-0.55078,0.07813 -0.9375,0.58984 -0.85937,1.14063c0.07813,0.55078 0.58984,0.9375 1.14063,0.85938h3c0.35938,0.00391 0.69531,-0.18359 0.87891,-0.49609c0.17969,-0.3125 0.17969,-0.69531 0,-1.00781c-0.18359,-0.3125 -0.51953,-0.5 -0.87891,-0.49609h-3c-0.03125,0 -0.0625,0 -0.09375,0c-0.03125,0 -0.0625,0 -0.09375,0c-0.03125,0 -0.0625,0 -0.09375,0zM21.71875,12c-0.55078,0.07813 -0.9375,0.58984 -0.85937,1.14063c0.07813,0.55078 0.58984,0.9375 1.14063,0.85938h3c0.35938,0.00391 0.69531,-0.18359 0.87891,-0.49609c0.17969,-0.3125 0.17969,-0.69531 0,-1.00781c-0.18359,-0.3125 -0.51953,-0.5 -0.87891,-0.49609h-3c-0.03125,0 -0.0625,0 -0.09375,0c-0.03125,0 -0.0625,0 -0.09375,0c-0.03125,0 -0.0625,0 -0.09375,0zM5.15625,16.46875c-0.03125,0.00781 -0.0625,0.01953 -0.09375,0.03125c-0.12109,0.01953 -0.23828,0.0625 -0.34375,0.125l-2.625,1.5c-0.48437,0.27734 -0.65234,0.89063 -0.375,1.375c0.27734,0.48438 0.89063,0.65234 1.375,0.375l2.625,-1.5c0.46875,-0.19922 0.71484,-0.71484 0.57031,-1.20312c-0.14453,-0.48828 -0.63281,-0.79297 -1.13281,-0.70312zM20.625,16.5c-0.43359,0.05469 -0.77734,0.38281 -0.85937,0.8125c-0.07812,0.42969 0.13281,0.85938 0.51563,1.0625l2.625,1.5c0.48438,0.27734 1.09766,0.10938 1.375,-0.375c0.27734,-0.48437 0.10938,-1.09766 -0.375,-1.375l-2.625,-1.5c-0.19922,-0.11719 -0.42969,-0.16016 -0.65625,-0.125zM8.3125,19.78125c-0.29297,0.05469 -0.54297,0.23828 -0.6875,0.5l-1.5,2.625c-0.27734,0.48438 -0.10937,1.09766 0.375,1.375c0.48438,0.27734 1.09766,0.10938 1.375,-0.375l1.5,-2.625c0.19141,-0.32422 0.18359,-0.73047 -0.02344,-1.04687c-0.20312,-0.31641 -0.57031,-0.49219 -0.94531,-0.45312c-0.03125,0 -0.0625,0 -0.09375,0zM17.34375,19.78125c-0.33203,0.04688 -0.61719,0.25781 -0.76172,0.55859c-0.14453,0.30078 -0.12891,0.65234 0.04297,0.94141l1.5,2.625c0.27734,0.48438 0.89063,0.65234 1.375,0.375c0.48438,-0.27734 0.65234,-0.89062 0.375,-1.375l-1.5,-2.625c-0.20312,-0.36719 -0.61719,-0.56641 -1.03125,-0.5zM12.90625,20.96875c-0.04297,0.00781 -0.08594,0.01953 -0.125,0.03125c-0.46484,0.10547 -0.79297,0.52344 -0.78125,1v3c-0.00391,0.35938 0.18359,0.69531 0.49609,0.87891c0.3125,0.17969 0.69531,0.17969 1.00781,0c0.3125,-0.18359 0.5,-0.51953 0.49609,-0.87891v-3c0.01172,-0.28906 -0.10547,-0.56641 -0.3125,-0.76172c-0.21094,-0.19922 -0.49609,-0.29687 -0.78125,-0.26953z"></path></g></g></svg>