<svg xmlns="http://www.w3.org/2000/svg" xmlns:xlink="http://www.w3.org/1999/xlink" width="42" height="42" viewBox="0 0 42 42">
  <defs>
    <filter id="Icon_awesome-code" x="0" y="0" width="42" height="42" filterUnits="userSpaceOnUse">
      <feOffset dy="3" input="SourceAlpha"/>
      <feGaussianBlur stdDeviation="3" result="blur"/>
      <feFlood flood-color="#010409"/>
      <feComposite operator="in" in2="blur"/>
      <feComposite in="SourceGraphic"/>
    </filter>
  </defs>
  <g transform="matrix(1, 0, 0, 1, 0, 0)" filter="url(#Icon_awesome-code)">
    <path id="Icon_awesome-code-2" data-name="Icon awesome-code" d="M10.457,23.979l-2.287-.83a.594.594,0,0,1-.307-.7L12.981.409a.446.446,0,0,1,.559-.384l2.287.83a.594.594,0,0,1,.307.7L11.016,23.595c-.071.3-.319.473-.559.384Zm-4.275-5.26,1.631-2.175a.664.664,0,0,0-.03-.806L4.386,12l3.4-3.736a.659.659,0,0,0,.03-.806L6.182,5.284a.39.39,0,0,0-.637-.023l-5.4,6.329a.658.658,0,0,0,0,.82l5.4,6.333a.388.388,0,0,0,.637-.023Zm12.269.028,5.4-6.333a.658.658,0,0,0,0-.82l-5.4-6.338a.393.393,0,0,0-.637.023L16.183,7.455a.664.664,0,0,0,.03.806L19.61,12l-3.4,3.736a.659.659,0,0,0-.03.806l1.631,2.175a.39.39,0,0,0,.637.028Z" transform="translate(9 6)" fill="#e3b341"/>
  </g>
</svg>
