<svg xmlns="http://www.w3.org/2000/svg" xmlns:xlink="http://www.w3.org/1999/xlink" width="42" height="42" viewBox="0 0 42 42">
  <defs>
    <filter id="Path_1" x="8.743" y="0" width="24.398" height="24.37" filterUnits="userSpaceOnUse">
      <feOffset dy="3" input="SourceAlpha"/>
      <feGaussianBlur stdDeviation="3" result="blur"/>
      <feFlood flood-color="#010409"/>
      <feComposite operator="in" in2="blur"/>
      <feComposite in="SourceGraphic"/>
    </filter>
    <filter id="Path_2" x="0" y="6.961" width="42" height="35.039" filterUnits="userSpaceOnUse">
      <feOffset dy="3" input="SourceAlpha"/>
      <feGaussianBlur stdDeviation="3" result="blur-2"/>
      <feFlood flood-color="#010409"/>
      <feComposite operator="in" in2="blur-2"/>
      <feComposite in="SourceGraphic"/>
    </filter>
  </defs>
  <g id="Icon_ionic-ios-man" data-name="Icon ionic-ios-man" transform="translate(9 6)">
    <g transform="matrix(1, 0, 0, 1, -9, -6)" filter="url(#Path_1)">
      <path id="Path_1-2" data-name="Path 1" d="M17.979,7.5h-.014a3.185,3.185,0,1,1,3.2-3.185A3.193,3.193,0,0,1,17.979,7.5Z" transform="translate(2.98 4.88)" fill="#e3b341"/>
    </g>
    <g transform="matrix(1, 0, 0, 1, -9, -6)" filter="url(#Path_2)">
      <path id="Path_2-2" data-name="Path 2" d="M18.325,25.125c-1.516,0-2.843-.47-2.843-1.36l.105-12.415H14.534v4.7a.917.917,0,0,1-.674.818,4.141,4.141,0,0,1-1.6.286,4.1,4.1,0,0,1-1.6-.286.913.913,0,0,1-.674-.818V10.608c0-.617.463-1.243,1.453-1.717a9.628,9.628,0,0,1,4.107-.8H28.424a9.559,9.559,0,0,1,4.107.809c.99.474,1.453,1.1,1.453,1.713v5.438c0,.326-.179.617-.7.818a4.943,4.943,0,0,1-3.265,0c-.516-.2-.7-.492-.7-.818v-4.7h-.948V23.765c0,.881-1.411,1.36-2.928,1.36-1.411,0-2.77-.416-2.885-1.333V17.478H21.305v6.3C21.231,24.66,19.852,25.125,18.325,25.125Z" transform="translate(-0.98 4.88)" fill="#e3b341"/>
    </g>
  </g>
</svg>
